# Blender v3.0.0 OBJ File: 'road.blend'
# www.blender.org
mtllib road.mtl
o Plane
v -2.049174 0.042357 -4.269804
v 2.049174 0.042357 -4.269804
v -2.049174 0.049783 4.207642
v 2.049174 0.049783 4.207642
vt 0.000000 0.000000
vt 1.000000 0.000000
vt 1.000000 1.000000
vt 0.000000 1.000000
vn 0.0000 -1.0000 0.0009
usemtl road
s off
f 1/1/1 2/2/1 4/3/1 3/4/1
o Cube_Cube.001
v 2.058244 -0.047285 -4.280024
v 2.058244 0.131981 -4.280181
v 2.058244 -0.039840 4.218019
v 2.058244 0.139425 4.217861
v 2.651323 -0.047285 -4.280024
v 2.651323 0.131981 -4.280181
v 2.651323 -0.039840 4.218019
v 2.651323 0.139425 4.217861
vt 0.375000 0.000000
vt 0.375000 0.250000
vt 0.625000 0.250000
vt 0.625000 0.000000
vt 0.375000 0.500000
vt 0.625000 0.500000
vt 0.375000 0.750000
vt 0.625000 0.750000
vt 0.375000 1.000000
vt 0.625000 1.000000
vt 0.125000 0.500000
vt 0.125000 0.750000
vt 0.875000 0.750000
vt 0.875000 0.500000
vn -1.0000 0.0000 0.0000
vn 0.0000 0.0009 1.0000
vn 1.0000 0.0000 0.0000
vn 0.0000 -0.0009 -1.0000
vn 0.0000 -1.0000 0.0009
vn 0.0000 1.0000 -0.0009
usemtl lines
s off
f 5/5/2 7/6/2 8/7/2 6/8/2
f 7/6/3 11/9/3 12/10/3 8/7/3
f 11/9/4 9/11/4 10/12/4 12/10/4
f 9/11/5 5/13/5 6/14/5 10/12/5
f 7/15/6 5/16/6 9/11/6 11/9/6
f 12/10/7 10/12/7 6/17/7 8/18/7
o Cube.001_Cube.002
v -2.658017 -0.047285 -4.280024
v -2.658017 0.131981 -4.280181
v -2.658017 -0.039840 4.218019
v -2.658017 0.139425 4.217861
v -2.064938 -0.047285 -4.280024
v -2.064938 0.131981 -4.280181
v -2.064938 -0.039840 4.218019
v -2.064938 0.139425 4.217861
vt 0.375000 0.000000
vt 0.375000 0.250000
vt 0.625000 0.250000
vt 0.625000 0.000000
vt 0.375000 0.500000
vt 0.625000 0.500000
vt 0.375000 0.750000
vt 0.625000 0.750000
vt 0.375000 1.000000
vt 0.625000 1.000000
vt 0.125000 0.500000
vt 0.125000 0.750000
vt 0.875000 0.750000
vt 0.875000 0.500000
vn -1.0000 0.0000 0.0000
vn 0.0000 0.0009 1.0000
vn 1.0000 0.0000 0.0000
vn 0.0000 -0.0009 -1.0000
vn 0.0000 -1.0000 0.0009
vn 0.0000 1.0000 -0.0009
usemtl lines
s off
f 13/19/8 15/20/8 16/21/8 14/22/8
f 15/20/9 19/23/9 20/24/9 16/21/9
f 19/23/10 17/25/10 18/26/10 20/24/10
f 17/25/11 13/27/11 14/28/11 18/26/11
f 15/29/12 13/30/12 17/25/12 19/23/12
f 20/24/13 18/26/13 14/31/13 16/32/13
o Plane.001
v -0.270569 -0.013886 -2.715476
v 0.270569 -0.013886 -2.715476
v -0.270569 -0.011926 -0.477788
v 0.270569 -0.011926 -0.477788
vt 0.000000 0.000000
vt 1.000000 0.000000
vt 1.000000 1.000000
vt 0.000000 1.000000
vn 0.0000 -1.0000 0.0009
usemtl white
s off
f 21/33/14 22/34/14 24/35/14 23/36/14
o Plane.002
v -0.270569 -0.011076 0.493380
v 0.270569 -0.011076 0.493380
v -0.270569 -0.009115 2.731067
v 0.270569 -0.009115 2.731067
vt 0.000000 0.000000
vt 1.000000 0.000000
vt 1.000000 1.000000
vt 0.000000 1.000000
vn 0.0000 -1.0000 0.0009
usemtl white
s off
f 25/37/15 26/38/15 28/39/15 27/40/15
