# Blender v3.0.0 OBJ File: 'rock.blend'
# www.blender.org
mtllib rock2.mtl
o Icosphere_Icosphere.001
v 0.006243 0.599973 0.009764
v -1.120822 0.454132 0.525720
v 0.279136 0.445503 1.850640
v 2.297157 0.384215 0.100000
v 0.279136 0.445503 -1.050640
v -0.720830 0.451667 -0.525720
v -0.279136 -0.445503 0.850640
v 0.720830 -0.451667 0.525720
v 1.720830 -0.451667 -0.525720
v -0.279136 -0.445503 -1.250640
v -0.909961 -0.241611 0.000000
v -0.006164 -0.999981 0.000000
v -0.278765 -0.385251 0.149360
vt 0.181819 0.000000
vt 0.272728 0.157461
vt 0.090910 0.157461
vt 0.363637 0.000000
vt 0.454546 0.157461
vt 0.909091 0.000000
vt 1.000000 0.157461
vt 0.818182 0.157461
vt 0.727273 0.000000
vt 0.636364 0.157461
vt 0.545455 0.000000
vt 0.363637 0.314921
vt 0.181819 0.314921
vt 0.909091 0.314921
vt 0.727273 0.314921
vt 0.545455 0.314921
vt 0.000000 0.314921
vt 0.272728 0.472382
vt 0.090910 0.472382
vt 0.818182 0.472382
vt 0.636364 0.472382
vt 0.454546 0.472382
vn -0.0845 0.9918 0.0958
vn -0.1558 0.9859 -0.0616
vn 0.0908 0.9934 0.0699
vn 0.0977 0.9881 -0.1188
vn -0.0799 0.9833 -0.1638
vn -0.9346 -0.0146 -0.3555
vn -0.6432 -0.3571 0.6773
vn 0.4962 -0.6331 0.5941
vn 0.4809 0.2883 -0.8280
vn -0.4155 0.4391 -0.7966
vn -0.7342 -0.5367 0.4158
vn 0.1878 -0.7831 0.5929
vn 0.5084 -0.7125 0.4835
vn 0.3408 -0.0025 -0.9401
vn -0.8951 -0.0874 -0.4372
vn -0.6168 -0.7351 0.2812
vn 0.1827 -0.7958 0.5774
vn 0.3804 -0.8512 0.3618
vn 0.1525 -0.8907 -0.4282
vn -0.6304 -0.7513 -0.1955
usemtl Material.010
s off
f 1/1/1 2/2/1 3/3/1
f 2/2/2 1/4/2 6/5/2
f 1/6/3 3/7/3 4/8/3
f 1/9/4 4/8/4 5/10/4
f 1/11/5 5/10/5 6/5/5
f 2/2/6 6/5/6 11/12/6
f 3/3/7 2/2/7 7/13/7
f 4/8/8 3/7/8 8/14/8
f 5/10/9 4/8/9 9/15/9
f 6/5/10 5/10/10 10/16/10
f 2/2/11 11/12/11 7/13/11
f 3/3/12 7/13/12 8/17/12
f 4/8/13 8/14/13 9/15/13
f 5/10/14 9/15/14 10/16/14
f 6/5/15 10/16/15 11/12/15
f 7/13/16 11/12/16 12/18/16
f 8/17/17 7/13/17 12/19/17
f 9/15/18 8/14/18 12/20/18
f 10/16/19 9/15/19 12/21/19
f 11/12/20 10/16/20 12/22/20
l 10 13
